<svg id="Layer_1" data-name="Layer 1" xmlns="http://www.w3.org/2000/svg" viewBox="0 0 490.76 465.24"><defs><style>.cls-1,.cls-2,.cls-3,.cls-4,.cls-6,.cls-8{fill:none;}.cls-1,.cls-2,.cls-3,.cls-4{stroke:#524b48;stroke-linecap:round;stroke-linejoin:round;}.cls-1{stroke-width:2px;}.cls-2,.cls-3{stroke-width:0.8px;}.cls-3{stroke-dasharray:3;}.cls-4{stroke-width:1.5px;}.cls-5,.cls-6,.cls-7,.cls-8{isolation:isolate;font-size:48px;font-family:Reef-Bold, Reef;font-weight:700;}.cls-5,.cls-7{fill:#fff;}.cls-5,.cls-6{letter-spacing:0.2em;}.cls-6,.cls-8{stroke:#000;stroke-miterlimit:10;stroke-width:0.7px;}.cls-7,.cls-8{letter-spacing:0.4em;}</style></defs><title>Logo test</title><path class="cls-1" d="M320.13,340.2c-.14,2.5-4.15,5.47-6.45,5.47-2.52,0-2.59-3.15-2.45-5.66a4.06,4.06,0,0,1,4.12-4h.36C318.05,336.07,320.26,337.71,320.13,340.2Z" transform="translate(-70.78 -77.56)"/><path class="cls-2" d="M323.33,339.65C323,344,313.9,350.2,310,350.21c-4.38,0-2.48-6.75-2.1-11.13s3.36-6.35,7.8-6.28C319.71,332.87,323.7,335.31,323.33,339.65Z" transform="translate(-70.78 -77.56)"/><path class="cls-2" d="M326.53,338.85c-1.89,7.51-13.56,15.64-21.63,16.44-5.79.56-1.06-11.28-.38-17.55s4.88-8.26,11.18-8.16C321.41,329.65,327.84,333.65,326.53,338.85Z" transform="translate(-70.78 -77.56)"/><path class="cls-2" d="M329.72,337.8c-2.37,10.1-22.82,23.77-31,22.93-6.57-.67,1.31-19.36,2.36-24.76,1.47-7.52,6.55-9.72,14.61-9.62C323.19,326.43,331.39,330.71,329.72,337.8Z" transform="translate(-70.78 -77.56)"/><path class="cls-2" d="M332.92,336.52c-1.6,11.53-30.72,31.31-41,29.91-8.18-1.11,5.32-26.33,5.75-32.6.58-8.4,11.37-10.72,18.08-10.71C324,323.12,334,328.65,332.92,336.52Z" transform="translate(-70.78 -77.56)"/><path class="cls-3" d="M336.13,335c-2.42,14-39.42,39.28-51.41,37.2-9.13-1.58,8.69-33.9,9.4-40.89,1-9.77,13.85-11.6,21.6-11.47C325.59,320.06,337.83,325.07,336.13,335Z" transform="translate(-70.78 -77.56)"/><path class="cls-2" d="M339.3,333.38C336.51,350.3,291.41,380,277.56,378c-11.23-1.62,11.92-40.89,13-49.48,1.35-10.91,16.57-11.91,25.14-11.91C327.28,316.65,341.4,320.72,339.3,333.38Z" transform="translate(-70.78 -77.56)"/><path class="cls-2" d="M342.49,331.56c-1.5,11.91-22.58,25.18-33,32.56-10.76,7.61-27.26,20.78-38.61,19.56C257,382.19,285.63,334.25,287,325.5c1.89-12.43,19.34-12,28.74-12.08C330.05,313.25,344.37,316.65,342.49,331.56Z" transform="translate(-70.78 -77.56)"/><path class="cls-1" d="M345.68,329.65C343.82,343.74,320,358.21,308,366.81S278.7,389.65,264.92,389c-17.16-.76,18-59.45,18.43-66.85.78-13.14,23.92-11.95,32.35-12C332.63,310.1,348.13,311.06,345.68,329.65Z" transform="translate(-70.78 -77.56)"/><path class="cls-2" d="M348.87,327.49c-1.88,15.64-28.89,32.22-42,41.8-12.81,9.34-31.41,25.14-46.7,24.7-21-.61,18.73-66.89,19.56-75.31,1.49-15.11,26.3-11.55,36-11.72C336.69,306.65,351.44,306,348.87,327.49Z" transform="translate(-70.78 -77.56)"/><path class="cls-2" d="M352.05,325.3c-2.5,17.35-31.26,35.35-45.92,46.24-13.7,10.2-33.31,27.22-49.24,26.85C232,397.8,274.45,326,276,315c2.4-16.8,28.92-11,39.66-11.26,8.36-.19,23.68-4.16,31.49.47S353.13,317.71,352.05,325.3Z" transform="translate(-70.78 -77.56)"/><path class="cls-3" d="M355.23,323c-2.56,19-33.91,38.68-49.23,50.48-13.52,10.4-32.78,28.31-50.45,28.6-32.49.54,15.27-80.48,16.81-90.94,2.77-18.51,31.77-10.37,43.34-10.66,8.16-.2,28.56-5.83,35.92-.85C360.27,305.5,356.37,314.65,355.23,323Z" transform="translate(-70.78 -77.56)"/><path class="cls-2" d="M358.42,320.65c-2.07,20.32-36.53,42.32-52,54.59-13.72,10.88-33.24,30.21-50.9,30.08-38.12-.28,10.93-85.87,13.13-98.11,3.46-19.2,34-10.29,47-10.54,10.06-.19,30.75-5.74,39.71-1.19C366,300.88,359.39,311,358.42,320.65Z" transform="translate(-70.78 -77.56)"/><path class="cls-2" d="M361.6,318.28c-3.42,22.06-38,45.12-54,58.36-14.14,11.73-33.79,32.09-52.06,31.93-16.38-.14-18.15-29.84-15.69-41.68,4.62-22.27,21.14-43.12,25.14-63.67,3.29-16.9,36.91-11.83,50.53-11.67,11.61.13,33.11-4.56,44-.48C371.44,295.54,363.13,308.28,361.6,318.28Z" transform="translate(-70.78 -77.56)"/><path class="cls-2" d="M364.78,315.86c-1.85,11.65-14.75,24-23,32.24-10.35,10.37-21.37,20.07-32.4,29.69-14.71,12.83-34.94,34.56-53.89,34-15.8-.45-20.17-32.33-18.52-45.1,3.1-24.09,19.79-46.91,24.24-67.54,3-13.74,40.32-14.33,54-13.86,7.77.27,16.17.34,24.29.65,6.91.26,18.28-1.61,24.61.31C377.87,290.44,366.31,306.22,364.78,315.86Z" transform="translate(-70.78 -77.56)"/><path class="cls-2" d="M368,313.44c-1.86,11.32-13.86,24.08-21.86,32.47-10.82,11.39-22.5,21.93-34,32.61C297,392.61,275.93,415.44,255.57,415c-16.51-.33-21.44-35.11-20.89-48.77,1-25.76,18-51,22.9-71.16,3-12.33,24.11-10.88,36.34-13.43,7.09-1.48,13.67-3.84,21-3.46,15.88.83,36.8.08,53,3.75C384.47,285.73,369.74,302.37,368,313.44Z" transform="translate(-70.78 -77.56)"/><path class="cls-2" d="M371.13,311c-1.87,11.44-14,25.37-22.12,34.23-10.73,11.64-22.28,22.52-33.5,33.69-15.58,15.48-37.88,39.6-60,39.3-19.22-.25-21.77-38.3-22.14-52.93-.69-27.12,16.25-52.13,20.44-74.27,2.58-13.62,27.76-9.71,39.32-13.91,8-2.91,11.62-6.84,21.36-6.63a335,335,0,0,1,57.69,6.67C391.13,281.16,373.05,299.43,371.13,311Z" transform="translate(-70.78 -77.56)"/><path class="cls-1" d="M374.33,308.65c-1.81,10.63-12.86,25.31-20.64,34.19-10.92,12.48-22.73,24.21-34.09,36.28-16,17-39.41,42.14-64.07,42.36-23,.2-22.3-42.06-23.08-57.23s1.85-28.19,7-42.54c3.84-10.72,9.11-25.21,10.69-34.64,2.4-14.22,31-7.36,42.49-14.61,8.62-5.43,8.8-10.59,21.47-10,20.7,1,41.71,5.31,62,10,7.68,1.78,12.6.07,10.84,10.21C385.41,291.29,375.62,301.06,374.33,308.65Z" transform="translate(-70.78 -77.56)"/><path class="cls-2" d="M377.51,306.35c-1.86,11.09-13.78,27.81-21.82,37.3-10.21,12.06-21.08,23.58-31.45,35.5-16.34,18.78-42.16,45-68.71,45.58-26.22.61-23.69-44.87-24.11-61.25-.4-15.8.34-29.08,5.1-44.32,3.61-11.57,7.15-28.43,9.92-36,2.86-7.76,16.87-10.36,29.34-12.21,4.11-.61,12.35-.51,16.18-3.62,8.79-7.13,6.82-13.73,21.71-13,22.68,1.11,44,7.93,66.12,12.87,8.49,1.89,12.94.63,12.88,9.62C392.61,285.42,378.75,299,377.51,306.35Z" transform="translate(-70.78 -77.56)"/><path class="cls-2" d="M380.69,304.11c-1.9,11.51-14.12,29.85-22.59,40.28-9.47,11.65-19.27,23-28.74,34.69C312.47,399.88,284.09,427,255.53,428c-29.19,1-25.9-46.86-25.6-64.76.26-15.51-.54-29.59,3.31-44.77,3.24-12.75,7.13-29.61,9.53-39,3.72-14.58,36.82-4.81,48.53-17.59,8.12-8.87,6-16.15,22-15.45,24.35,1.06,46.8,9.43,70.55,15.58,7.46,1.93,13.55,1,15.53,8.63C401,277.17,381.68,298.16,380.69,304.11Z" transform="translate(-70.78 -77.56)"/><path class="cls-3" d="M383.88,302c-1.3,11.83-12.53,29.41-20.58,40-9.44,12.38-19,24.56-28.38,37-17.06,22.74-49.22,51-79.39,52.27-31.85,1.34-28.83-48.52-27.53-67.82,1.11-16.63-.3-33.1,3.25-49.47,2.67-12.3,5.78-29.48,7.87-38.06,3.5-14.39,40.13-4.48,51.5-19.43,7.57-10,5.5-18,22.26-17.57,25.89.62,49.93,9.78,74.67,17.49,8.53,2.66,16.32,1.85,17.17,11.4A75.2,75.2,0,0,1,394,284C389.13,289.16,384.52,296.11,383.88,302Z" transform="translate(-70.78 -77.56)"/><path class="cls-2" d="M387.07,299.93c-1.74,10.8-10.81,28.68-18.57,39.56-9.28,13-18.3,26.16-27.5,39.2-17.54,24.84-53.68,54.31-85.47,55.73-34.25,1.53-31.89-49.11-29.91-70.36,1.68-18.13.53-36.61,3.64-54.53,2.1-12.09,4.25-29,6.23-37.11,3.64-14.77,44.1-3.28,54.46-21.77,6.73-12,5.68-19.09,22.62-18.75,27.28.53,53.17,9.16,79,18.82,8.5,3.18,20.79,3,18.34,14.24C407.25,277,388.63,290.19,387.07,299.93Z" transform="translate(-70.78 -77.56)"/><path class="cls-2" d="M390.25,298c-1.77,11.15-10.74,30.58-18.64,42.14-8.57,12.53-15.93,25.58-24.21,38.24-17.27,26.34-59.14,57.91-91.87,59.24-36,1.46-35.69-48.83-32.79-72.39,2.33-18.92,1.95-37.61,4.08-56.35,1.48-12.92,2.61-32.87,5.06-39.67,4.12-11.43,50-3.69,57.39-24.19,5-13.7,6.51-19.4,23.06-19.1,29,.52,55.94,8,83,19.11,8.42,3.46,20.51,4.8,20.54,14.3,0,5.3-7.72,12.14-10.7,15.91C399.13,282.9,391.41,290.75,390.25,298Z" transform="translate(-70.78 -77.56)"/><path class="cls-1" d="M393.44,296.29C391.56,307.75,383,328.38,375,340.84c-7.74,12.09-13.22,25.1-20.72,37.22-9.93,16.06-25.49,27.94-41.21,38-16.33,10.41-37.86,24.3-57.57,24.85-37,1-39.48-48.15-36-74a561.08,561.08,0,0,0,5.14-58.61c.45-13.93,1.08-34.82,3.64-42,4.42-12.33,52.71-2.77,60.29-26.81,4.73-15,6.4-18.55,23.59-18.38,30.76.32,58.68,5.83,87,18.36,7.43,3.29,23,6.73,22.41,15.66C420.63,268.31,395.05,286.5,393.44,296.29Z" transform="translate(-70.78 -77.56)"/><path class="cls-2" d="M396.64,294.71c-1.85,11.15-8.75,31.33-16.21,43.94s-11.66,26.55-19,39.06c-10.6,18-29.2,30.64-46.67,41.27-16.9,10.27-39.29,24.81-59.2,25.13-37.22.59-43.89-47.12-39.7-75.08,3.39-22.7,7.14-41.91,7-64.67,0-13.55-.56-33.82,1.9-40.69,3.33-9.3,31.92-10.35,48.74-14.2,10.66-2.44,11.72-5.55,14.39-15.44,4.54-16.81,7-16.29,24.4-16.37,32.48-.16,61,2.39,90.82,16.38,6.44,3,22.53,7.73,24.95,15.26C430.83,257.83,397.82,287.65,396.64,294.71Z" transform="translate(-70.78 -77.56)"/><path class="cls-2" d="M399.83,293.34c-1.89,10.8-7.18,30.55-14.12,43.29-7.16,13.14-9.53,27.86-16.76,40.69-11.25,20-33.92,33.53-53.1,44.69-17.41,10.13-40.05,25-60.32,25.33-37,.58-48.08-47-43.69-75.8,3.7-24.25,10.49-44.69,9.23-69.16-.7-13.66-2.31-34.3.21-41,3.67-9.78,34.3-9.88,52.19-14.9,10.45-2.93,11.09-7.94,13.74-17.69,5-18.58,8.82-13.26,26.77-13.65,33.36-.71,62-1.36,93,13.64,6.46,3.13,23.71,9.1,26.49,16.59,2.56,6.87-11.07,17.91-14.74,22.19C411.29,276.17,401.25,285.17,399.83,293.34Z" transform="translate(-70.78 -77.56)"/><path class="cls-2" d="M403,292.17c-2,11-6.26,30.66-12.89,44s-6.53,28.05-13.54,40.78c-11.7,21.27-37.58,35.2-57.76,46.83-18.38,10.59-42,26.45-63.31,26.8-36.36.61-52-47.28-47.83-76.3,3.71-26,13.79-48.84,11.43-75.2-1.18-13.19-3.78-33.09-1.3-39.67,4.16-11,39.07-7.25,57.25-16.66,8.11-4.19,9-10.29,11.44-19,.93-3.36,1.43-10.84,4.88-12.87,4.33-2.54,20.92,2.5,25.87,2.42,33.19-.55,61.56-5.29,93.42,10.47,7,3.44,26.54,11,28.07,19.55,1,5.29-8.47,14.3-11.33,17.58C418,271.65,404.85,282,403,292.17Z" transform="translate(-70.78 -77.56)"/><path class="cls-2" d="M406.23,291.24c-2.37,11.83-5.94,31.28-12.32,45.87-5.66,12.93-2.69,27.17-9.69,39.51-13,23-42.73,37.7-64.75,50.29-18.91,10.81-42.47,26.27-63.94,26.89-34.38,1-56.43-46.77-52.4-76.33,3.43-25.19,17.07-49.79,15-75.28-1.2-14.71-6.54-36.83-3.68-44.35,4.41-11.57,39.26-7.63,57.95-17,9.34-4.66,10.36-12.26,13.39-21.91,1.5-4.78,1.6-9.81,6.51-11.48,7.12-2.42,21.61,4.59,29.56,4.45,33.07-.58,60.51-9,92.66,7,7,3.51,27.62,12.34,29.3,20.89,1.15,5.85-8.06,14.71-11.23,18.34C422.58,269.65,408.41,280.33,406.23,291.24Z" transform="translate(-70.78 -77.56)"/><path class="cls-2" d="M409.43,290.56c-2.72,12.71-6.36,31.52-11.72,47.61-4.29,12.88,1.65,25.67-5.55,38.12-13.34,23.06-45,38.08-67.13,50.88-20.21,11.7-46,29.43-69.5,29.86-33.07.62-60-47.44-56.83-76.42,2.92-27.11,20-53.94,17.33-81.12-1.39-14.26-7.88-35.21-4.95-42.79,4.91-12.7,46.24-5,63.54-19.11,6.15-5,7.82-16.06,10.42-23.18,2.15-5.87,1.88-8.41,7.75-9.75,8.86-2,25.22,6.41,34.57,6.33,13-.1,25.57-4.21,38.5-5.74a91.57,91.57,0,0,1,52.42,9.23c7.32,3.65,28.38,13.44,30.2,22.24,1.35,6.53-7.25,14.91-10.83,19C427.13,267.92,411.92,278.93,409.43,290.56Z" transform="translate(-70.78 -77.56)"/><path class="cls-2" d="M412.63,290.15c-2.89,12.56-5.79,30.81-10.16,46.8-3.83,14,5.69,25.45-2.79,39.15-14.92,24.09-50.37,40.67-74,54.22C305.35,442,279,459.83,255.56,460.26c-30.63.58-63.87-48-61.58-76.17,2.36-29,23.22-58,19.78-86.77-1.67-13.88-8.38-31.33-5.94-41.3,4-16.39,49.11-6.13,64.7-20.88,6.51-6.16,8.34-16.77,11.77-24.93,3-7,2.61-8.18,10.22-8.28,12.84-.17,26.16,8.8,39,8.39,30.69-1,56.91-15.62,88.53,0,7.84,3.87,28.69,14.28,30.7,23.63,1.57,7.3-6,14.86-10.11,19.68C431.62,266.51,415.5,277.73,412.63,290.15Z" transform="translate(-70.78 -77.56)"/><path class="cls-2" d="M415.84,290c-3.15,12.71-6.77,31-9.41,47.19-2.46,15.07,10.85,23.56.72,38.74-16.3,24.43-53.76,41.93-78.45,56.08-21.19,12.15-48.79,31-73.17,31.45-28.69.55-66.95-48.86-66.1-76.09.56-16.51,6.56-32.79,11.76-48.28,4.42-13.07,12.1-28,10.41-42.12s-9.68-30.54-7-41.19c4.44-17.92,52.36-5.76,67.83-24,5.64-6.63,6.67-18,11-25.46,4.53-7.71,5-8.55,14.69-6.56,14.22,2.94,27.79,10.44,41.81,9.92,29.68-1.08,54.09-18.69,85.83-3.32,8.65,4.19,28.46,14.86,30.73,25.15,1.78,8.11-4.24,14.44-9,20.18C436.13,265.45,419.13,276.77,415.84,290Z" transform="translate(-70.78 -77.56)"/><path class="cls-2" d="M419.05,290c-1.7,6.53-.87,18-2.59,26.73-1.34,6.8-6.15,15.34-6.1,22,.11,15.23,15.76,20.93,4.17,37.14-8.2,11.48-22.8,19.63-34.23,27.44Q358,418.62,334.5,432.23c-22.36,13-53.22,34.28-79,34.5-16.67.14-31.19-15.31-41.79-27.56-11.72-13.55-27.4-30.24-28.4-48.78-1-17.8,6.78-36.41,12.65-52.89,4.55-12.76,12.55-27.68,10.8-41.57-1.72-13.65-10.19-30.24-7.38-40,5-17.24,52.74-5.07,68-24.69,6.2-8,7.86-19.89,13.19-28.53,10.53-17.06,48.29,7.13,63.73,6.46,12.49-.55,24.31-7.51,37.07-11,15.33-4.2,31.74-2.19,46.19,4.55,10.27,4.78,24.19,14.28,29.25,24.93,5.57,11.74-4.07,19.62-11.81,27.82C436.32,266.79,422,278.65,419.05,290Z" transform="translate(-70.78 -77.56)"/><path class="cls-2" d="M422.26,290c-1.72,6.52-.89,18-2.53,26.82-1.21,6.43-6,15.21-5.47,21.65,1.31,16.16,21.53,19.65,6.74,37.59-9,11-23.2,19.22-34.87,27.21-16.6,11.36-33.68,22.07-51.1,32.12-23.19,13.37-53.17,34.18-79.5,34.53-17.64.23-33.14-17-44.2-30-10.56-12.44-27.49-29.95-30.21-46.48-5.54-33.56,26.87-62.83,24.72-94.83-1-14.24-10.47-32.07-7.58-42.37,5-17.78,53.62-5.63,68.34-26.58,6.37-9.07,8.63-21.15,15.07-30.27,12.29-17.42,54.43,9.82,70.66,9,12.47-.61,23.85-8.11,36.47-12.42,14.69-5,30.27-3.12,44.4,3.39,11.33,5.25,23.14,15,28.93,26.25,6.15,12-2.63,19.94-10.76,28.64C440.36,266.07,425.37,278.31,422.26,290Z" transform="translate(-70.78 -77.56)"/><path class="cls-3" d="M425.47,290c-1.79,6.67-.92,18.52-2.61,27.61-1.16,6.23-6.25,15.79-4.94,22,3.49,16.4,27,17.54,9.14,36.83-23.36,25.17-59.47,43.64-88.93,60.64-24.09,13.9-55.31,35.7-82.62,36.07-18.18.24-34.16-17.86-45.53-31.3-10.68-12.63-27.45-30-32.41-46-10.1-32.68,25-64.12,24.88-95.54,0-14.24-10.19-33.19-7.27-43.57,5.15-18.37,54.68-6.3,69.19-29.93,5.83-9.49,8.85-21.88,16.27-30.31,16.05-18.23,57.69,11.9,77,10.9,27.86-1.46,47.12-26.06,79.13-11A61.13,61.13,0,0,1,465.2,224c6.06,12.31-.9,19.85-9.52,29.18C444.4,265.36,428.71,278,425.47,290Z" transform="translate(-70.78 -77.56)"/><path class="cls-2" d="M428.68,290c-1.78,6.7-.9,18.53-2.55,27.64-1.21,6.69-6.71,17.5-4.18,24,2.71,7,13.41,8.54,16.94,15.06,4.56,8.41.14,14-6.27,20.16C407.55,401,374,419.65,344.13,437.1,318.65,452,284.52,476,255.52,476.41c-18.2.24-34.1-17.64-45.62-31.11-11.88-13.87-27.48-30.93-35-47.82-14.24-32.05,24.5-65.45,24-96.72-.21-14.24-9.68-32.92-6.79-43.32,5-18,53.1-8,68.36-30.29,7.16-10.47,10.71-23.71,19.08-33.53C296,174.35,342.61,207,361.84,206,389.3,204.62,408.67,178,440,193.62a59.45,59.45,0,0,1,29.23,31.28c3.61,8.82,1.69,13.47-3.77,21.44C454.13,262.82,432.57,275.44,428.68,290Z" transform="translate(-70.78 -77.56)"/><path class="cls-2" d="M431.89,290c-1.8,6.66-.88,18.52-2.49,27.64-1.22,6.87-6.53,17.57-3.85,24.11,3.34,8.15,16.22,8.73,20.31,16.13,4.7,8.5-2.75,14.36-8.82,19.78-25.93,23.19-57,41.86-86.86,59.42-17.84,10.49-36,20.57-54.81,29.3-12.06,5.6-26.57,13.3-39.84,13.23-19.1-.1-35.08-18.47-46.92-32.33C195.94,432.48,182.2,416,172.43,399c-17.37-30.22,20.87-65.82,22.87-95.73,1-14.43-9-34.33-6.09-45,4.81-17.75,51.71-9.42,67.16-30.69,8.21-11.32,12.14-26.44,22-36.8,19-20,65.32,14.23,86.5,13.17,27.35-1.36,48.11-29.2,78.52-13.11,13.8,7.3,22.56,18.42,28.76,32.75,3.74,8.63,2.8,13.25-2.37,21.5C459.05,262.11,435.86,275.36,431.89,290Z" transform="translate(-70.78 -77.56)"/><path class="cls-2" d="M435.13,290c-1.94,7.32-1,20.39-3,30.36-1.64,8.44-6.08,15.68-1.34,23.25,4.31,6.89,15.61,7.61,19.93,14.14,6,9.11-2.49,14.78-9.31,20.78-27.32,24-59.46,43.51-90.78,61.79-26.31,15.36-64.14,42.67-95.11,42.52-20.1-.1-37.1-20.38-49.36-35a522,522,0,0,1-36-47.63c-19.11-28.93,15-63.27,21-92.2,3.14-15.21-7.87-37.43-4.88-48.84,2.72-10.4,29.11-13.1,41.46-16.57,15.27-4.28,19.9-7.53,27.26-20.58,6.29-11.14,12.91-25.19,21.94-34.25,21.3-21.31,65.71,14.49,89.08,13.43,27.68-1.26,51.12-29.66,80.6-13.39,13.09,7.23,21.29,19.1,27.4,32.45,4.88,10.65,5.38,16.07-1.79,25.8C460.61,261.89,438.93,275.65,435.13,290Z" transform="translate(-70.78 -77.56)"/><path class="cls-2" d="M438.31,290c-2,7.44-1,20.88-3,31.07-1.77,9-6.28,15.91.14,23.53,5.15,6.13,16.78,7.66,20.78,14.54,5.21,9-4.11,14.67-10.71,20.45-27.63,24.24-59.94,43.87-91.58,62.34-18.54,10.83-37.44,21.21-56.9,30.3-12.62,5.9-27.29,13.49-41.47,13.84-20.65.51-38.68-22-50.68-36.23-13-15.48-25-31.85-37-48.14-20.52-28,10.19-62,19.21-90.3,5-15.6-6.73-39.23-3.68-51.09,2.74-10.63,29-13.53,41.52-17.39,15.32-4.75,18.92-8.9,26.36-21.9,6.81-11.89,14.57-26.32,24.33-35.95,22.52-22.2,66.12,14.12,90.45,12.9,27.41-1.37,55.6-29.8,83.78-12.9,12.86,7.74,20.84,20.51,27.13,33.82,4.8,10.26,6.35,16.15-.43,26C465.13,261.4,442.26,275.37,438.31,290Z" transform="translate(-70.78 -77.56)"/><path class="cls-2" d="M441.52,290c-2,7.46-1,20.82-3,31-1.77,9.21-6,16,.51,23.61,5.22,6.12,19.44,8.56,22.37,16.4,3.23,8.62-6,14.37-12.22,19.85-28.41,25.23-62.19,45.38-94.94,64.36-18.58,10.76-37.46,21.17-56.94,30.22-12.75,5.92-27.52,13.49-41.8,13.86-20.63.54-38.63-21.75-50.71-36-13.73-16.15-26.29-33.29-39.23-50.06-7.6-9.85-11.55-14.63-8.16-27.46,5.89-22.23,19.48-41.76,26.49-63.58,5.08-15.81-6.38-38.47-3.4-50.72,2.57-10.57,27.64-13.81,39.64-17.75,15-4.93,18.73-9.25,26.19-22s16.66-29.3,27.86-39.22C299.6,160,339.34,196.18,366,194.78c27.39-1.43,59.38-30.45,86.85-12.11,13.14,8.77,21.91,22.89,28,37.24,4.59,10.76,5.33,16.16-1.88,26C467.33,261.77,445.38,275.53,441.52,290Z" transform="translate(-70.78 -77.56)"/><path class="cls-2" d="M444.73,290c-2,7.47-1,20.74-2.9,30.9-2.1,11.08-6.28,17.25,3,25.55,5.32,4.79,19.9,8.58,21.8,16.46,1.74,7.21-9.18,15.18-13.73,19.31-27.37,24.85-60.69,44.38-92.46,62.9-20.72,12.08-41.88,23.59-63.64,33.71-12.71,5.9-27.08,13.35-41.24,13.7-21.17.53-39.63-22.64-52-37.19C189.64,439,176.82,421.74,163.35,405c-7-8.62-12.69-13.49-10.18-25.13C158,357.42,172.31,337.3,180,315.8c6.07-17.09-5.32-39.41-2.26-52.93,2.37-10.51,26.15-14.09,37.69-18.12,14.68-5.14,18.43-9.62,25.86-22.22,8.46-14.35,18.93-31.33,31.35-42.66,26.14-23.86,66.27,13,93.45,11.68,27.87-1.4,62-31.58,89.86-11.68,12.21,8.75,20.87,23.25,27.05,36.69,5.85,12.64,8.22,17.88-1.44,30.2C469.59,262.06,448.5,275.72,444.73,290Z" transform="translate(-70.78 -77.56)"/><path class="cls-2" d="M448,290c-2,7.65-1,21.16-3,31.52-2.28,12-5.76,17.53,4.85,25.86,5.34,4.19,20.4,8.89,21.08,17.13.55,6.54-10.55,15.4-14.74,19.3-27,25.17-61.07,44.86-93,63-21.72,12.37-43.88,24.26-66.48,35-12.66,6-27,13.64-41.18,14C233.2,496.37,214,471.36,201,456c-13.64-16.13-26.37-33-40-49.15-7.45-8.85-13.78-14.59-10.71-27.06,4.93-20,16.75-38.06,24.29-57.07,8.22-20.75-3.24-41.85.28-58.39,2.29-10.77,25.65-14.59,37.11-19,14.34-5.56,17.51-11,24.84-23.42,9-15.21,20.74-32.64,34-44.47,28-24.92,66.44,12.28,95.16,11,29-1.3,64-33,92.65-10.79,12.68,9.84,21.87,25.39,28.26,39.91,5.49,12.46,7.12,18-2.78,30.14C472.13,262.41,451.63,275.91,448,290Z" transform="translate(-70.78 -77.56)"/><path class="cls-2" d="M451.13,290c-2.18,8.25-1.14,23-3.43,34.2s-4.17,15.42,5.75,23.13c6.42,5,21.91,9.37,20.84,19.3-.7,6.44-10.78,14.73-15.27,19-26.17,25-59.92,44.12-91.38,61.44-22.32,12.28-44.76,24.48-67.6,35.77-13.39,6.61-29.16,15.84-44.53,16.13-22.95.45-42.53-25.42-55.85-41.12-13.81-16.27-26.94-33-40.93-49.16-7.08-8.15-13.1-14.23-11.83-25.67,2.15-19.44,16.41-38.79,23.74-56.63,5.45-13.25,6.8-20,4.08-33.09-1.88-9.06-4.06-20.28-2.65-27.59,2-10.52,24.07-14.94,34.93-19.45,13.34-5.53,17.32-11.75,24.28-23.54,9.95-16.85,23.13-34.63,37.72-47.78,29.69-26.79,66.31,11.65,97,10.11,30.37-1.53,65.8-34.62,95.29-10,12.57,10.48,22,26.21,28.56,41,5.39,12.25,8.07,18.13-1.52,30.39C476.3,261.94,455,275.65,451.13,290Z" transform="translate(-70.78 -77.56)"/><path class="cls-2" d="M454.36,290c-1.85,8.89-1.12,22.87-3.35,34-2.32,11.61-3.88,15.31,6.12,23.23,7.38,5.89,23.47,9.74,20.46,21.54-1.56,6.11-11.3,14.49-15.72,18.79-27.76,27-64.25,45.63-98,63.71-22.09,11.83-44,24-66.34,35.38-12.54,6.37-27.41,15.33-42,15.54-23.51.39-43.51-26.32-57.14-42.34-14-16.39-27.71-32.88-41.89-49.07-6.26-7.2-12.78-14.81-12.36-24.94.79-18.78,15.62-38.75,22.74-55.7,5.73-13.62,7.93-21.1,5.17-34.71-1.88-9.28-4-20.47-2.7-28.19,1.79-10.48,22.35-15.22,32.7-19.85,14.09-6.31,18.06-14.63,25.6-26.9,10.56-17.19,24.37-34.46,39.37-48,31.28-28.37,66.57,10.73,99.1,9.37,31.38-1.31,67.73-36.23,97.83-9.37C477,184.17,487.13,201.06,493.84,217c4.15,9.86,4.7,14.25,1.16,24a67.36,67.36,0,0,1-18.93,21.61C466.37,269.9,456.31,280.7,454.36,290Z" transform="translate(-70.78 -77.56)"/><path class="cls-1" d="M457.58,290c-1.92,9-1.18,23.25-3.44,34.62-2.46,12.39-2.67,15.54,8,23.52,9.16,6.84,22.82,9.6,18,22.52-2.47,6.66-11,14.24-16,19.15-28.75,28.35-67.2,45.59-102.36,64.23-22.13,11.73-43.89,24.16-66,35.91-11.92,6.33-26.34,15.38-40.31,15.51-23.29.21-43.5-26.23-57.11-42-14.59-16.88-29.54-33.58-44.14-50.47-21.9-25.35-4.21-49.21,7.64-76.12,6.62-15,10.38-24.23,7.27-39.94-1.83-9.21-3.86-20.22-2.61-28.11,1.7-10.8,21.48-15.75,31.62-20.82,13.4-6.69,17.19-16.19,24.63-28.09a241,241,0,0,1,41.9-49.78c33.27-30.12,66.27,9.65,101.32,8.45,32.3-1.1,69.61-37.81,100.15-8.46,13.11,12.6,23.51,28.87,30.53,45.58l3.33,8.71q5.55,8.58-1.31,15.49A58.64,58.64,0,0,1,480,261.84C470.07,269.36,459.61,280.47,457.58,290Z" transform="translate(-70.78 -77.56)"/><path class="cls-2" d="M460.79,290c-1.89,9-1.16,23.1-3.36,34.42-2.74,14-1.12,17.38,11.42,25.52,8.61,5.6,20,9.56,15.08,21-3.29,7.64-11.66,15.38-17.45,21.17-30.67,30.66-73.73,46.77-111.32,66.81-19.55,10.43-38.69,21.55-57.94,32.52-12.67,7.22-26.85,16.86-41.69,17.28-23.65.67-44.47-27.15-58.4-43.22-14.67-16.92-30.71-33.1-45-50.26-20.69-24.93-5.14-48.63,6.25-74.63,6.68-15.24,11.13-25.31,8.1-41.38-1.78-9.45-3.78-20.38-2.66-28.71,1.65-12.38,23.11-16.91,33.65-23.91,10.06-6.62,13.25-15.61,19.4-25.55,12.19-19.77,28.39-37.5,45.43-53.14,9.74-9,22-16.79,35.57-14.16,23.39,4.52,43.45,21.13,68.17,21.58,36.63.66,68.37-40.35,102.38-7.46,12.91,12.49,23.11,28.09,30.3,44.49a110.22,110.22,0,0,1,5,12.78q5.08,8.84-2,15.5a65.75,65.75,0,0,1-18.94,21.71C472.93,269.77,462.75,280.65,460.79,290Z" transform="translate(-70.78 -77.56)"/><path class="cls-2" d="M464,290c-1.86,9-1.13,23-3.29,34.21-3,15.76,1.85,18.93,14.9,27.59,10.17,6.75,17.17,9.74,10.62,21.42-4.34,7.74-11.26,14.93-17.47,21.16-30.87,31-76.36,45.59-114.2,65.85-20.63,11-40.59,23.08-60.61,35.17-11.59,7-24.73,16.41-38.42,16.52-24.77.2-46.12-28.75-61-45.93-14.15-16.38-31.39-31.52-44.46-48.56-19.7-25.69-4.81-50.45,6.37-76.62,6.2-14.5,10-24.82,7.2-40.08-1.75-9.43-3.52-20.1-2.58-28.66,1.35-12.29,21.11-17.29,31-24.31,10.55-7.47,13.92-18.27,20.77-28.92,12.85-19.87,29.55-37.26,47-53.15,8.54-7.74,19.83-18.27,31.75-17.08,9.87,1,21.27,8,30.47,11.55,13.8,5.31,29,11.58,44,12,16.53.42,30.73-10,46-14.91,23-7.38,41.21-9.27,58.71,8.34a150.66,150.66,0,0,1,30.11,43.53c3.17,7,9,17.76,7.89,25.92A92.94,92.94,0,0,1,485.42,263C475.81,270.15,465.91,280.8,464,290Z" transform="translate(-70.78 -77.56)"/><path class="cls-2" d="M467.21,290c-1.92,9.08-1.26,23.26-3.36,34.72-3,16.42,4,19.16,17,28,10.93,7.44,15.25,10.62,8,22.31C484,382.92,477.5,390.15,471,396.68c-31.88,32.15-82.26,45.64-121.34,67-19.82,10.81-38.75,22.8-57.67,35.08-10.91,7.09-23.22,16.4-36.47,16.47-25.35.13-47.08-29.68-62.3-47.14-14.06-16.1-32.73-31.11-45-48.41-17.92-25.42-5.72-49.74,5-75.38,6.23-14.79,10.45-25.62,7.71-41.22-1.71-9.67-3.51-20.38-2.64-29.27,1.18-12,19-17.59,28.43-24.77,10-7.62,13.45-18.58,20-28.93,13.55-21.43,31.69-39.56,50.4-56.43,8.32-7.51,18.62-21.42,29.69-19.76C314.14,148,337.57,168.06,366,169c15.79.49,28.92-9.58,43.49-14.19,24.3-7.7,45-10,63.47,8.57a153.51,153.51,0,0,1,30.76,44.46c3.16,6.94,9.27,18.19,8.5,26.32a81.17,81.17,0,0,1-22.92,28.18C479.47,269.65,469.19,280.65,467.21,290Z" transform="translate(-70.78 -77.56)"/><path class="cls-2" d="M470.42,290c-1.89,9-1.24,23.09-3.29,34.49-3,17,3.9,19.1,17.36,28.19,11.89,8,15.15,12.44,6.7,24.72A158.89,158.89,0,0,1,473.29,399c-12.48,12.59-26.71,18.91-42.86,26.32-27.94,12.81-56.07,25.18-83,40.06-20.22,11.16-39,24-57.91,37.21-9.91,6.92-21.35,16-34,15.86-25.7-.21-46.84-29.28-62.19-46.71-14.28-16.22-35.2-32-46.63-50.1-16.71-26.48-5.71-50.86,4.92-77.25,5.68-14.08,9.18-24.81,6.55-39.75-1.71-9.64-3.28-20.15-2.57-29.22,1-12.31,17.77-18.12,26.7-25.9,9.16-8,12.87-19.73,19.31-29.87,14.09-22.17,33.1-40.84,52.73-58.08,6.65-5.84,11.71-12.8,17.3-18.53,4.43-4.54-.77-5.46,9.08-4.27,29.41,3.57,54.85,26,85.32,27,15.71.51,28.15-9.9,42.79-14.08,23.85-6.81,47.89-9.18,66.4,9.45a157,157,0,0,1,32.44,47.54c3.07,7,8.8,18,7.75,26.14a90.84,90.84,0,0,1-23.39,28C482.36,270,472.35,280.75,470.42,290Z" transform="translate(-70.78 -77.56)"/><path class="cls-3" d="M473.63,290c0,12.69-2.59,24.5-3.79,37-1.48,15.26,6,17,18.24,25.6,12.41,8.68,15.6,12,6.85,25a160.56,160.56,0,0,1-19.36,23.61c-13.3,13.39-30.6,19.23-47.7,26.57-30.3,13-60.66,26.16-89.15,42.82-18,10.53-34.26,23.07-50.9,35.56-9.47,7.1-20.17,15.72-32.29,15.43-28.16-.67-52.84-36.36-70.47-55.66-14.46-15.82-36.81-29.79-43.92-50.67-10-29.3,1.59-49.62,11.44-77.33,4.74-13.35,5.17-20.61,3-34.14-1.28-8.08-3.69-19.27-2-27.28,2.55-12.45,13.55-16.59,22.55-24.32,9.2-7.9,12-18,17.76-28.25,12.1-21.47,28.94-39.91,47.1-56.36,6.84-6.22,20.78-13.51,23.72-22.7,1.85-5.77-2.73-9.63,2.9-12.65,6.86-3.67,30.28,9.79,37,12.39,19.12,7.4,40.91,17.56,61.47,17.85,14.32.21,24.5-8.54,37.75-12.59,24.48-7.47,54.63-10.36,73.74,8.87a160.22,160.22,0,0,1,34,50.71c3.2,7.61,8.28,17.6,7,26a100.73,100.73,0,0,1-23.75,27.84,64.39,64.39,0,0,0-21.14,26.76Z" transform="translate(-70.78 -77.56)"/><path class="cls-2" d="M476.84,290c-2,9.85-3.06,24.42-3.72,36.76-.91,17,8.12,18.16,21.59,27.8,12.65,9,10.49,13.59,2.51,25.38a147.47,147.47,0,0,1-19.39,23.56c-16.57,16-41.26,22-62.06,30.6-29.08,12.08-58.24,24.77-84.93,41.65-15.78,10-29.27,22.17-43.68,33.86-9.19,7.46-19.32,15.25-31.47,15.17-26.66-.16-48.61-30.76-64.93-49-8.68-9.7-17.31-19.5-26.84-28.37-7.51-7-15.33-12.57-20.06-21.91-12.82-25.3-6.91-50.39,2.4-75.41,5.35-14.39,9.13-25.89,6.53-41.09a202.31,202.31,0,0,1-2.66-30.39c-.22-13.24,17.63-20.64,24.58-29.66,7.69-10,11.69-23,18.81-33.55,14.93-22.22,34.58-40.79,54.91-57.92,9.43-8,11.42-10.66,11-22.22-.3-8.2-1.31-8.75,8.87-6.9,33.08,6,63.59,30.26,97.64,30.92,13.57.27,21.51-7.27,33.55-11.36,24.6-8.36,60.76-10.24,80.31,8.57,14.46,13.92,25.79,31.39,33.79,49.72,3.71,8.52,9.84,20.22,8,29.84a110.92,110.92,0,0,1-24.06,27.67C488.2,270.7,478.67,281,476.84,290Z" transform="translate(-70.78 -77.56)"/><path class="cls-2" d="M480.05,290c-2.07,10-2.68,24.67-3.79,37.24-1.5,17,11.22,18.85,23.54,28.32s7.65,15,.07,26.2c-5.68,8.4-12.22,17.19-19.77,24-18.78,17-48.74,23.2-71.72,32.48-28.19,11.38-56.68,23.52-81.86,40.79-20.5,14-42.58,48.59-69,48.29-28.85-.32-51.41-31.12-69.47-51-13.74-15.12-37.06-30.05-45.49-48.84-10.45-23.25-7.59-48.82.3-71.93,5.54-16.23,9.94-28.18,7.1-45a226.67,226.67,0,0,1-2.63-30.45c-.42-12.91,16-21.47,22.47-30.89,7.33-10.6,11.24-23.51,18.53-34.34,15.66-23.23,36.3-40.89,56.92-59.39,10-9,9.68-12.6,7.07-24.63-2.1-9.68-.2-9.39,10.17-7.54,34.31,6.12,67.12,32.74,101.86,33.27,13.39.21,21.28-7.09,33-11.34,23.81-8.68,65.4-8,84.72,8.92,15.07,13.22,26.53,32.53,34.46,50.7,3.69,8.48,10.09,20.7,8.7,30.25a98.63,98.63,0,0,1-23.8,28C491.82,270.25,482,280.84,480.05,290Z" transform="translate(-70.78 -77.56)"/><path class="cls-2" d="M483.26,290c-2.07,10.12-3,25-3.86,37.72-1.12,17.19,13.69,19,25.41,28.87,11.34,9.56,4.82,16.49-2.28,27-5.71,8.43-12.4,17.8-20.17,24.49-21.09,18.14-56.69,24.53-82.05,34.53-26.67,10.56-54.09,21.93-77,39.5-18.82,14.4-36.4,47.52-62,47.12-30.63-.47-54.86-29.45-74.46-50.81-13.91-15.17-37.69-29.61-45.3-49.1-8.84-22.63-7.72-49-.7-71.51,5.06-16.25,9.33-28.42,6.47-45.17-1.84-10.29-2.33-21.23-2.78-31.09-.57-12.59,14.24-22.31,20.33-32.1,7-11.2,10.82-24,18.3-35.07,16.35-24.32,39-40.09,58.74-60.77,9.85-10.32,5.82-15.13,2.9-27.09-2.67-11,1.31-10.22,12.46-8,19.12,3.81,38.17,12.33,56,20.08,15,6.5,31.55,15.78,48.05,16,15.25.18,24.61-10.06,38.6-12.84,24-4.75,65.42-6.12,84.47,10.21,14.74,12.54,26.31,32.07,34.24,49.64,4.22,9.34,11.56,23.51,9.65,34.12a108.3,108.3,0,0,1-24.15,27.75C494.75,270.65,485.13,281,483.26,290Z" transform="translate(-70.78 -77.56)"/><path class="cls-2" d="M486.47,290c-2.07,10.23-3.4,25.41-3.94,38.19-.72,17.36,16.19,19,27.2,29.45,10.11,9.59,2,18-4.55,27.75-6,8.82-12.86,18.43-21.23,25.11-24,19.16-63.79,25.61-92,36.65-24.5,9.58-50.53,20-70.43,37.76C305,499.71,291,531.13,266.33,530.69c-31.26-.56-58.87-26.33-79.37-48.48-14.83-16-39-30-46.42-51-7.26-20.52-8.26-48-2.46-68.66,4.38-15.62,9.86-29.35,6.86-45.6-2.07-11.21-2.6-23.25-3.21-33.92-.69-12.13,12.08-22.5,17.72-32.44,6.44-11.35,10.17-23.73,17.41-34.85a218.63,218.63,0,0,1,27.59-33.62c10.22-10.42,25.07-19.22,34.06-30.5,9.93-12.46-1.3-19.42-2.38-31.54-.89-10.1,5.93-8.15,14.78-6.56,19.2,3.45,37.52,11.76,55,20.1,15.7,7.48,33.19,18.87,51.1,19.24,15.82.33,25.71-10.23,39.87-13.74,12.56-3.11,29.62-.55,42.19.41,15.08,1.15,34.14,1.38,46.9,10.33,16.5,11.59,28.67,34.51,36.52,52.57,4.11,9.44,11.13,23.29,8.84,33.92A118.14,118.14,0,0,1,507,264C497.71,270.86,488.27,281.1,486.47,290Z" transform="translate(-70.78 -77.56)"/><path class="cls-2" d="M489.68,290a243.57,243.57,0,0,0-4,38.67c-.34,17.53,18.7,18.87,28.86,30.06,12.57,13.84-17.94,46.22-30,54.42-28.47,19.31-68.93,26.37-100.87,38.58-22.3,8.53-45,18.21-61.94,35.56-14.34,14.72-25.74,44.85-49.2,44.38-32.24-.65-65.18-24.25-86.82-47.37-15.23-16.26-39.21-29.4-46-51.39-6.25-20.24-8.06-48.22-3.2-68.7,3.71-15.64,8.69-29.21,5.73-45.29-2.11-11.46-2.6-23.84-3.3-34.66-.77-11.92,10.44-23.27,15.66-33.58,6-11.89,9.83-24.11,17.19-35.49A217.51,217.51,0,0,1,199.87,181c9.68-9.79,27.12-19.66,34.21-31.49,11.39-19-24.56-47.34,13.18-40.37,19.56,3.61,37.47,12.31,54.86,21.61,15.09,8.06,32.18,20.47,49.77,20.79,17.24.31,28-12.74,43.73-15.54,10.23-1.83,24.38,1.25,34.47,2.11,17,1.45,42.89.2,58,9.53,17.58,10.85,30.54,37.22,38.24,55.54,4,9.56,10.74,23.09,8.07,33.75a129.44,129.44,0,0,1-24.58,27.44C500.68,271.14,491.44,281.22,489.68,290Z" transform="translate(-70.78 -77.56)"/><path class="cls-2" d="M492.89,290c-2.47,9.73-3.69,26.12-4.07,39.16-.52,18.19,22.09,17.93,30.38,30.68,10.6,16.32-22.15,48.74-35.79,56.31C433.75,443.79,362,444.52,323,489.46c-12.45,14.37-21.31,43.5-43.68,43-32.89-.71-70.1-21.78-93.52-44.37-16.17-15.61-41-30.75-47-53.37-5.64-21.22-7.69-49.88-3.33-71.31,3.07-15.13,6.7-27.89,3.77-43.24-2.18-11.41-2.5-23.94-3.24-34.67-.81-11.78,8.84-24,13.67-34.69,5.58-12.36,9.54-24.47,17-36.07a214.2,214.2,0,0,1,28.52-34.82c9.13-9.23,28.72-20.31,33.63-32.69,5.55-14-8-23.43-7.82-35.81.18-12.22,14.88-8.07,23.59-6.4,19.3,3.69,36.48,13,53.17,23,14.45,8.6,31.24,22.24,48.37,22.39,18.53.21,31.66-15.79,49.11-17.87,8-1,18.94,2.89,26.82,3.87,20.48,2.54,47.36.94,66.1,9.76,19.11,9,32.06,35,40.24,53.83,4.15,9.57,10.44,22.21,9.28,32.8-1.08,9.91-10.72,17.88-17.63,24.66C509.39,267.92,495.66,279.08,492.89,290Z" transform="translate(-70.78 -77.56)"/><path class="cls-2" d="M496.13,290c-2.45,9.71-4.22,26.7-4.08,39.67.21,18.25,24.23,17.61,31.69,31.31,10.41,19.13-28.73,51.8-42.91,58.5C445,436.46,406,446.25,369.13,460.76c-17.77,7-32.31,15.75-44.3,30.69-11.12,13.85-16.56,42.19-38.27,41.67C250.68,532.27,210,512,183.47,488.69c-17.19-15.07-39.7-28.94-45.24-52.28-5.21-22.16-7.21-51.33-3.77-73.79,2-13.52,4.69-24.88,2.47-38.42-2-12.53-2.94-25.87-3.76-37.63s7.56-25.55,12.06-36.71c5.32-13.14,9.79-25.45,17.69-37.47a217.37,217.37,0,0,1,26.8-32.65c9.6-9.82,29.13-21.35,32.92-35,3.71-13.32-7.27-22.82-7.75-35-.62-15.61,18.62-11,29.91-8.28,19.09,4.62,35.84,15.41,51.88,26.29,12.68,8.6,28.22,22.21,43.46,21.58,11.07-.46,21.4-4.47,31.91-9.58,7.42-3.61,15.47-10.17,24-10.5,8-.31,18,4.61,25.9,6,21.71,3.86,45.7,2.47,66.76,9.17,20.36,6.48,33.63,34,41.85,52.34,4.78,10.68,11.92,24.68,10.32,36.46-1.34,9.86-11.12,17.84-18,24.59C512.33,268.18,498.83,279.2,496.13,290Z" transform="translate(-70.78 -77.56)"/><path class="cls-2" d="M499.31,290c-2.39,9.71-4.7,27.37-4,40.18.93,18.18,26.22,17.38,32.79,32,4.11,9.15-7.07,22.84-12.26,30.51-10.71,15.83-20.62,22.92-38.9,30.43C439.8,438.47,401,449.55,363.94,465c-15,6.22-27.33,15.35-37,28.41-10,13.38-12.37,41-33.19,40.44C256,532.82,210.43,513,181,489.36c-17.9-14.4-38.59-27.5-43.39-51.2A286.94,286.94,0,0,1,132.88,366c1-14.32,3.64-26.38,1.13-40.69-2.23-12.52-3-26-3.75-37.67s6.07-26.26,10.24-37.75c4.88-13.46,9.72-25.89,17.54-38a213.18,213.18,0,0,1,27-33.14c10.15-10.39,28.88-21.18,31.43-36.31,2.19-13-8.7-24.06-7.92-36.27,1-15.3,22.82-11.16,33.56-8.39,18.6,4.8,34.53,16.36,49.66,27.66,12.13,9.07,27.33,23.57,42.39,23,12.35-.48,24.25-5.62,36-11.5,7.61-3.82,17.06-10.85,25.85-10.95,9-.11,18.7,6.57,27.38,8.53,21.27,4.82,43.52,3.9,64.73,8.85,23.54,5.5,36.26,31.83,45.46,52.47,4.08,9.15,11.64,24,11.51,34.45-.17,12.52-12.17,21.16-20.32,29C514.61,269.06,501.88,279.65,499.31,290Z" transform="translate(-70.78 -77.56)"/><path class="cls-2" d="M502.52,290c-2.35,9.6-5.11,28.11-4,40.71,1.66,18.14,28.69,17,33.65,32.64,2.87,9.06-8.69,23.65-13.75,31.13-12.2,18.1-25.69,24.25-46.43,32.43-36.68,14.44-75.41,25.11-111.2,41.74a79.81,79.81,0,0,0-31.66,26.52c-9,13-8.45,40-28.69,39.4-38.7-1.13-86.15-19.51-118.19-41.94-20.14-14-40.62-27.61-45.17-52.91-4-22.42-5.55-48-5.7-70.81-.11-15,2.4-27.95-.46-42.79-2.4-12.46-2.9-25.91-3.67-37.75-.78-12,4.71-26.89,8.58-38.73,4.46-13.64,9.63-26.29,17.36-38.46a208.7,208.7,0,0,1,27.16-33.57C191,166.74,209.06,156.52,210,140c.71-12-9.83-25.82-7-37.24,3.54-14.33,25.45-11.64,36.26-8.69,18.15,5,33.32,17.28,47.63,28.92,11.67,9.5,26.63,24.84,41.59,24.26,12.74-.48,25-6,37.18-12,8.61-4.27,18.83-11.43,28.79-12.37,10.6-1,19.2,7.43,28.93,10.35,20.45,6.14,42.47,5,63.27,9.16,16.92,3.39,24.05,8.85,33.62,22.94a189.64,189.64,0,0,1,17,31c4.1,9.48,11.64,23.93,11.1,34.23-.47,9.07-7.92,16-13.69,22.14C522.62,265.65,505.72,277,502.52,290Z" transform="translate(-70.78 -77.56)"/><path class="cls-3" d="M505.73,290c-2.31,9.49-5.46,28.9-3.84,41.25,2.33,17.66,30.8,17.08,34.26,33.32,1.93,9-10.06,24.37-15,31.72-13.59,20.08-32.35,26-54.95,34.63-34.78,13.28-73.48,22.8-106.23,41-10.9,6.05-21.83,14.49-28.59,25.14-8.15,12.82-4.92,39.26-25,38.62C267,534.49,218,516.87,183.82,495.89c-22.26-13.66-43-27.3-47.17-54.45C133,417.62,131.31,392,130.18,368c-.66-14.13.48-27.12-2.32-41.1-2.49-12.43-3-25.89-3.64-37.83-1.32-23.67,11.4-57.85,24.26-78.51a204.56,204.56,0,0,1,27.24-34c11.51-11.87,27.75-20.85,27.8-39.08,0-11.46-9.69-26.91-5-37.89,5.71-13.3,26.9-12.4,37.94-9.25,17.77,5.06,32.28,18.16,45.88,30,11.36,9.9,26.19,26,41.2,25.42,14.37-.54,28.23-7.35,41.9-14.26,9.1-4.6,19.49-11.28,29.92-11.81,10.14-.52,16.32,5.94,24.88,10.12,19.56,9.55,44.11,8.4,65.19,11.52,17.37,2.56,27,6.86,36.94,21.37a192.53,192.53,0,0,1,17.14,30.57c4.36,9.79,12.86,26.69,12.26,37.64-.5,8.91-8.57,16.22-14.19,22.16C525.55,265.78,508.88,277.08,505.73,290Z" transform="translate(-70.78 -77.56)"/><path class="cls-2" d="M509,290c-2.27,9.37-5.76,29.72-3.67,41.82,2.93,17,32.58,17.38,34.6,34,1.12,9.23-11.09,24.89-16.11,32.3-14.81,21.88-39.87,27.91-64,36.94-32.68,12.24-68.2,21.69-98.39,39.61C350.9,481,339.93,488.2,333.56,499c-7.6,12.88-1.92,38.91-22.47,38.24-41.48-1.36-93.1-19.46-129.62-40.61C158,483.1,140,471,136.2,443c-3.39-24.93-5.19-50.8-7.41-75.87-2.27-25.67-6.55-52.89-7.63-77.55-1.07-24.38,8.93-56.31,21.59-77.77A195.76,195.76,0,0,1,172,174.52c11.92-12.16,26-20.65,25.3-39.42-.5-13.27-9.6-28.67-.17-40.41,8-9.94,23.15-11,34.43-8.37,34.71,7.92,55.86,58.25,88.05,57.68,25-.44,50.26-27.37,77.09-27.7,10.29-.12,17.59,6.75,26.1,11.44,18.5,10.23,40.3,10,60.81,12.85,17.75,2.45,30.34,4.55,41,19.52a184.39,184.39,0,0,1,18.69,33.72c4.13,9.57,12.64,26.61,11.85,37.43-.64,8.81-9.09,16.34-14.67,22.18C528.5,266,512.05,277.19,509,290Z" transform="translate(-70.78 -77.56)"/><path class="cls-2" d="M512.13,290c-2.23,9.26-6,30.58-3.47,42.4,3.51,16.43,34.07,17.63,34.69,34.67.35,9.66-11.75,25.18-17,32.86-15.85,23.41-48.2,30-73.33,39.32-30.5,11.33-62.3,20.66-89.92,38.11C352.85,483.87,341.69,490,335.57,501c-7.39,13.28.37,39-21.31,38.33-42.84-1.39-95.21-20.17-133.43-40.59-25-13.33-41.66-24.86-45-54.09-3-25.61-5-51.12-8.47-76.68s-8.65-52.74-9.34-78c-.71-25.85,7.21-56,20.3-78.81a190.3,190.3,0,0,1,29-37.7c12.59-12.92,24.52-21.15,23.47-40.66-.81-15.09-7.32-28.21,4.51-40.44,9-9.32,21.17-12.38,33.56-9.6,35,7.87,53,58,87.91,59.06,27.79.85,50.21-27.31,78.26-28.55,12.1-.54,20.35,6.5,30.17,12.39,17.69,10.6,36.18,11.8,56.44,14.19,19.84,2.35,35.35,3.65,47.12,20.88a190.63,190.63,0,0,1,16.6,30.16c4.77,10.76,11.68,25,12.18,36.91C558.6,251.21,516.13,273.65,512.13,290Z" transform="translate(-70.78 -77.56)"/><path class="cls-4" d="M515.36,290c-2.17,8.9-7.1,34.33-3.1,45.32,5.67,15.57,35.7,15.17,34.5,34.43-.62,9.94-12.25,24.5-18.09,32.64-17.13,23.85-56.19,31.32-82.5,41.13-26.75,10-54.11,18.55-78,34.35-10.51,7-23.33,12.71-29.9,24-8.21,14.13,1,40.82-22.58,40.12-24.16-.73-49.73-9.31-72.65-16.65-22.16-7.1-44.33-15-65.09-25.63-25.76-13.13-39.3-24.25-42.43-53.55-2.74-25.62-4.19-50.72-9.21-76.09-5.18-26.19-11.26-53.46-11.44-80.07-.19-27.28,5.85-55.66,19.22-79.73,7.74-13.93,17.77-26.58,28.81-38,13-13.53,22.83-21.91,21.82-41.8-.83-16.4-4-27.92,9-40.5,9.24-9,20-13.73,32.82-10.87C262.91,87.22,281,135.82,315.72,139c26.65,2.41,50.85-27.78,79.46-28.94,12.46-.51,21.89,6.46,31.89,12.92,17.28,11.14,32.13,13.69,52.66,16.15,20.19,2.39,39.18,2.19,51.77,19.8,6.76,9.44,12.18,20.06,16.88,30.65,4.9,11,11.67,25.24,12.38,37.5C562.13,251.11,519.41,273.38,515.36,290Z" transform="translate(-70.78 -77.56)"/><text class="cls-5" transform="translate(0.35 111.85)">M / ARCH</text><text class="cls-6" transform="translate(0.35 111.85)">M / ARCH</text><text class="cls-7" transform="translate(272.81 397.47)">2022</text><text class="cls-8" transform="translate(272.81 397.47)">2022</text></svg>